<svg xmlns="http://www.w3.org/2000/svg" width="1400" height="900" viewBox="0 0 1400 900" role="img" aria-labelledby="title desc">
  <title id="title">Rootbound Wildwood habitat structure target</title>
  <desc id="desc">A top-down planning diagram showing an open spore meadow, root galleries, lantern grove, thornstone verge, Heartroot Crown landmark, safe and risky routes, clustered resources, and portrait view stations.</desc>
  <defs>
    <linearGradient id="bg" x1="0" y1="0" x2="1" y2="1"><stop offset="0" stop-color="#0b2228"/><stop offset="1" stop-color="#153b37"/></linearGradient>
    <linearGradient id="land" x1="0" y1="0" x2="0.9" y2="1"><stop offset="0" stop-color="#91b47d"/><stop offset="1" stop-color="#5f865d"/></linearGradient>
    <filter id="shadow" x="-20%" y="-20%" width="140%" height="140%"><feDropShadow dx="0" dy="8" stdDeviation="8" flood-color="#061419" flood-opacity=".55"/></filter>
    <pattern id="grid" width="28" height="28" patternUnits="userSpaceOnUse"><path d="M28 0H0V28" fill="none" stroke="#b9e3cf" stroke-opacity=".08" stroke-width="1"/></pattern>
    <marker id="arrowCyan" viewBox="0 0 10 10" refX="8" refY="5" markerWidth="7" markerHeight="7" orient="auto-start-reverse"><path d="M0 0L10 5L0 10Z" fill="#87ead4"/></marker>
    <marker id="arrowGold" viewBox="0 0 10 10" refX="8" refY="5" markerWidth="7" markerHeight="7" orient="auto-start-reverse"><path d="M0 0L10 5L0 10Z" fill="#f2bd6b"/></marker>
  </defs>
  <rect width="1400" height="900" fill="url(#bg)"/><rect x="20" y="20" width="1360" height="860" rx="28" fill="none" stroke="#78cfc1" stroke-opacity=".35" stroke-width="2"/>
  <text x="65" y="76" fill="#f3f4df" font-family="system-ui, sans-serif" font-size="35" font-weight="750">Rootbound Wildwood — habitat structure target</text>
  <text x="67" y="110" fill="#b4d2c7" font-family="system-ui, sans-serif" font-size="17">Designed rooms, routes and ecology — not uniform prop scatter</text>
  <g filter="url(#shadow)"><rect x="55" y="145" width="965" height="695" rx="30" fill="#102f32" stroke="#4e8377" stroke-width="2"/><rect x="55" y="145" width="965" height="695" rx="30" fill="url(#grid)"/></g>
  <path d="M176 727C112 657 125 548 172 472C216 398 192 306 273 230C350 158 453 199 528 183C646 159 724 205 796 252C895 316 939 401 916 493C896 575 950 646 861 733C782 811 676 774 585 798C466 831 363 788 270 797C221 802 198 765 176 727Z" fill="url(#land)" stroke="#c5dfad" stroke-width="4"/>
  <path d="M225 654C190 608 203 553 257 521C316 486 370 508 399 553C428 599 398 650 342 674C291 696 251 686 225 654Z" fill="#9bc48a" opacity=".72"/>
  <path d="M697 352C752 299 842 322 872 379C904 440 861 485 790 489C721 493 665 449 672 399C675 381 684 365 697 352Z" fill="#769a65" opacity=".72"/>
  <path d="M402 292C458 237 536 238 590 279C643 320 625 388 571 418C514 449 420 422 384 366C365 337 377 317 402 292Z" fill="#6e945f" opacity=".6"/>
  <path d="M197 707C164 652 170 575 222 531C280 482 375 500 421 557C454 598 437 681 382 727C329 770 228 759 197 707Z" fill="#b8d99b" stroke="#d9eaba" stroke-width="2"/>
  <g fill="#d889c4" opacity=".9"><circle cx="240" cy="622" r="8"/><circle cx="267" cy="603" r="5"/><circle cx="310" cy="650" r="7"/><circle cx="357" cy="586" r="5"/><circle cx="385" cy="635" r="8"/><circle cx="287" cy="701" r="5"/></g>
  <text x="220" y="566" fill="#173e36" font-family="system-ui, sans-serif" font-size="23" font-weight="750">1 · SPORE MEADOW</text><text x="220" y="590" fill="#2c5c4c" font-family="system-ui, sans-serif" font-size="14">open orientation + first forage</text>
  <g fill="none" stroke="#6d3f2d" stroke-linecap="round"><path d="M291 511C345 457 390 470 444 428C501 384 526 322 577 284" stroke-width="33"/><path d="M360 729C421 673 438 619 487 574C544 522 616 529 676 483" stroke-width="38"/><path d="M509 744C544 675 590 643 640 607C690 571 746 576 804 532" stroke-width="29"/><path d="M534 398C594 420 645 406 691 376C731 350 751 307 788 283" stroke-width="25"/></g>
  <g fill="none" stroke="#a06a43" stroke-linecap="round" opacity=".8"><path d="M291 511C345 457 390 470 444 428C501 384 526 322 577 284" stroke-width="7"/><path d="M360 729C421 673 438 619 487 574C544 522 616 529 676 483" stroke-width="8"/><path d="M509 744C544 675 590 643 640 607C690 571 746 576 804 532" stroke-width="6"/><path d="M534 398C594 420 645 406 691 376C731 350 751 307 788 283" stroke-width="5"/></g>
  <text x="410" y="475" fill="#f6ead4" font-family="system-ui, sans-serif" font-size="24" font-weight="750">2 · ROOT GALLERIES</text><text x="417" y="500" fill="#e6d7bd" font-family="system-ui, sans-serif" font-size="14">enclosure → choice → reveal</text>
  <ellipse cx="650" cy="638" rx="128" ry="94" fill="#355f55" stroke="#8de0ba" stroke-width="3"/>
  <g fill="#9a55a7" stroke="#d6a1e3" stroke-width="1.5"><circle cx="605" cy="622" r="19"/><circle cx="638" cy="585" r="14"/><circle cx="677" cy="612" r="22"/><circle cx="710" cy="650" r="15"/><circle cx="649" cy="675" r="13"/><circle cx="588" cy="666" r="11"/></g>
  <g fill="#f4d16f"><circle cx="615" cy="622" r="4"/><circle cx="643" cy="585" r="3"/><circle cx="683" cy="611" r="4"/><circle cx="713" cy="649" r="3"/><circle cx="652" cy="674" r="3"/></g>
  <text x="557" y="739" fill="#e9fff3" font-family="system-ui, sans-serif" font-size="22" font-weight="750">3 · LANTERN GROVE</text><text x="569" y="762" fill="#bfe3d4" font-family="system-ui, sans-serif" font-size="14">hero pocket + grove/Wildkin interaction</text>
  <path d="M764 317C823 329 879 373 898 437C914 494 888 566 834 592C806 605 777 590 761 564C735 523 757 476 740 430C725 391 725 343 764 317Z" fill="#506b67" opacity=".82" stroke="#8ba8a3" stroke-width="2"/>
  <g fill="#42575f" stroke="#a5bcc5" stroke-width="1.5"><path d="M797 516L815 435L835 516Z"/><path d="M837 472L856 376L876 472Z"/><path d="M774 455L790 390L806 455Z"/><path d="M849 559L866 489L884 559Z"/><path d="M803 397L819 341L834 397Z"/></g>
  <text x="748" y="613" fill="#edf7f4" font-family="system-ui, sans-serif" font-size="21" font-weight="750">4 · THORNSTONE VERGE</text><text x="768" y="635" fill="#c7d9d4" font-family="system-ui, sans-serif" font-size="14">risk / mineral seam / shortcut</text>
  <g transform="translate(563 227)" filter="url(#shadow)"><path d="M0 92C18 54 17 28 10 0C38 22 49 45 51 67C67 37 90 19 119 9C96 41 91 67 99 92C79 79 66 75 51 81C36 75 20 78 0 92Z" fill="#4e2d25" stroke="#bd8457" stroke-width="4"/><path d="M15 78C3 101 -4 116 -26 130M42 78C34 109 24 125 8 142M79 78C86 105 101 123 124 137M102 75C119 98 130 109 153 117" fill="none" stroke="#6d3f2d" stroke-width="17" stroke-linecap="round"/><g fill="#244a3f"><ellipse cx="18" cy="8" rx="36" ry="22"/><ellipse cx="56" cy="-3" rx="43" ry="25"/><ellipse cx="95" cy="11" rx="38" ry="24"/><ellipse cx="57" cy="29" rx="53" ry="26"/></g></g>
  <text x="498" y="176" fill="#f5d995" font-family="system-ui, sans-serif" font-size="25" font-weight="800">5 · HEARTROOT CROWN</text><text x="517" y="201" fill="#ddc994" font-family="system-ui, sans-serif" font-size="14">hero silhouette + orientation</text>
  <path d="M276 746C286 675 326 611 390 559C448 512 506 489 568 474C632 459 683 432 734 389" fill="none" stroke="#87ead4" stroke-width="8" stroke-linecap="round" stroke-dasharray="17 13" marker-end="url(#arrowCyan)"/>
  <path d="M318 739C390 716 459 696 535 669C591 649 660 614 714 585C763 560 800 514 821 453" fill="none" stroke="#f2bd6b" stroke-width="7" stroke-linecap="round" stroke-dasharray="9 12" marker-end="url(#arrowGold)"/>
  <text x="329" y="669" fill="#0f4d47" font-family="system-ui, sans-serif" font-size="14" font-weight="800">SAFE / READABLE</text><text x="704" y="548" fill="#54351d" font-family="system-ui, sans-serif" font-size="14" font-weight="800">RICH / RISKY</text>
  <g font-family="system-ui, sans-serif" font-size="17" font-weight="800"><circle cx="434" cy="354" r="16" fill="#d96e79"/><text x="428" y="361" fill="#fff">B</text><circle cx="585" cy="584" r="16" fill="#d96e79"/><text x="579" y="591" fill="#fff">B</text><rect x="852" y="429" width="25" height="25" transform="rotate(45 864.5 441.5)" fill="#8bd7e6"/><text x="858" y="448" fill="#123">C</text><circle cx="680" cy="649" r="18" fill="#f0df8c"/><text x="673" y="656" fill="#183a31">W</text></g>
  <g fill="none" stroke="#f4f0d9" stroke-width="3" opacity=".92"><circle cx="265" cy="690" r="28"/><circle cx="467" cy="508" r="28"/><circle cx="681" cy="622" r="28"/></g><g fill="#f4f0d9" font-family="system-ui, sans-serif" font-size="14" font-weight="800"><text x="255" y="695">A</text><text x="457" y="513">B</text><text x="671" y="627">C</text></g>
  <g filter="url(#shadow)"><rect x="1050" y="145" width="295" height="695" rx="30" fill="#102f32" stroke="#4e8377" stroke-width="2"/></g>
  <text x="1082" y="196" fill="#f3f4df" font-family="system-ui, sans-serif" font-size="25" font-weight="750">Design rules</text>
  <g font-family="system-ui, sans-serif" font-size="16" fill="#c9ddd4"><text x="1082" y="238" fill="#8fe2cc" font-weight="800">ROOM RHYTHM</text><text x="1082" y="264">reveal → enclosure → choice → reveal</text><text x="1082" y="310" fill="#8fe2cc" font-weight="800">PATCHES, NOT CONFETTI</text><text x="1082" y="336">one dominant family per patch</text><text x="1082" y="360">with irregular gaps and transitions</text><text x="1082" y="406" fill="#8fe2cc" font-weight="800">FOUR SCALE BANDS</text><text x="1082" y="432">ground detail · mid mass</text><text x="1082" y="456">anchors · rare hero forms</text><text x="1082" y="502" fill="#8fe2cc" font-weight="800">MOBILE READABILITY</text><text x="1082" y="528">landmark or route cue in the</text><text x="1082" y="552">central play area of each view</text><text x="1082" y="598" fill="#8fe2cc" font-weight="800">ECOLOGY</text><text x="1082" y="624">fungus → damp/deadwood</text><text x="1082" y="648">berries → bright clearing edge</text><text x="1082" y="672">crystal → thornstone/root seam</text><text x="1082" y="718" fill="#f2bd6b" font-weight="800">ROUTE KEY</text></g>
  <line x1="1085" y1="748" x2="1160" y2="748" stroke="#87ead4" stroke-width="7" stroke-dasharray="16 11"/><text x="1172" y="754" fill="#d8eee6" font-family="system-ui, sans-serif" font-size="15">safer route</text><line x1="1085" y1="785" x2="1160" y2="785" stroke="#f2bd6b" stroke-width="7" stroke-dasharray="9 10"/><text x="1172" y="791" fill="#f2dfbd" font-family="system-ui, sans-serif" font-size="15">richer route</text>
  <text x="65" y="872" fill="#90b2a8" font-family="system-ui, sans-serif" font-size="14">Planning diagram: exact coordinates, heights and assets remain subject to runtime feasibility and owner playtest.</text>
</svg>